<?xml version="1.0" encoding="utf-8"?>
<!-- Generator: Adobe Illustrator 23.0.5, SVG Export Plug-In . SVG Version: 6.00 Build 0)  -->
<svg version="1.1" id="Capa_1" xmlns="http://www.w3.org/2000/svg" xmlns:xlink="http://www.w3.org/1999/xlink" x="0px" y="0px"
	 viewBox="0 0 1700.8 1417.3" style="enable-background:new 0 0 1700.8 1417.3;" xml:space="preserve">
<style type="text/css">
	.st0{fill:#FFFFFF;}
	.st1{fill:none;}
	.st2{fill:#F7C552;}
</style>
<g>
	<g>
		<g>
			<rect x="89.6" y="901.3" width="1521.6" height="254.8"/>
		</g>
		<g>
			<g>
				<path class="st0" d="M201.2,1073.5V960.2h-14.4c-6.1,0-10.3,0.5-12.6,1.5c-2.6,0.9-5,3-7.5,6.4c-1.8,2.9-3.1,7.2-3.8,13h-3.5
					l1.5-28.3h99.4v7.5h-42v113.3h-17.1V1073.5z"/>
				<path class="st0" d="M383.8,1012.3c0,18.1-5.8,33.3-17.4,45.5c-11.6,12.2-25.6,18.3-42,18.3s-30.3-5.8-41.8-17.5
					c-11.4-11.7-17.1-27-17.1-46s6.6-34.7,19.7-47.1c11.4-10.5,25-15.7,40.7-15.7s29.3,6,40.8,17.9
					C378,979.8,383.8,994.6,383.8,1012.3z M363.3,1014.7c0-20.8-4.1-36.2-12.2-46.2c-6.7-8.1-15.7-12.2-27.2-12.2
					c-10.5,0-19.1,4-25.9,12c-8.1,10-12.2,24.6-12.2,44c0,19.3,4.2,34.5,12.6,45.4c6.4,8,15,12,25.7,12c6.1,0,11.3-1,15.7-3.1
					c4.4-2.1,8.5-5.4,12.4-10C359.6,1047.4,363.3,1033.4,363.3,1014.7z"/>
				<path class="st0" d="M507.6,1073.5h-32.3l-40.9-56.5H427h-2.4h-2.7v56.5h-34.5v-3.3h4.6c5.1,0,8.8-1.6,10.9-4.9
					c1.2-1.8,1.8-6.2,1.8-13.1V974c0-7.5-0.8-12.3-2.4-14.2c-2.4-2.6-5.9-3.8-10.4-3.8h-4.6v-3.3h44c13.1,0,22.6,1,28.5,2.9
					c6,1.5,11.1,4.8,15.4,9.9c4.3,5.2,6.5,11.2,6.5,18.1c0,7.5-2.4,14-7.1,19.2c-4.7,5.3-12.3,9.2-22.6,11.8l24.8,34.7
					c1.2,1.6,2.2,2.9,3.1,4c1.9,2.4,3.6,4.4,4.9,5.8c2.4,2.7,4.7,4.7,6.7,6c4,2.6,9.4,4.2,16,4.9v3.5H507.6z M461.6,985
					c0-7.3-2.4-13.4-7.1-18.2c-4.7-4.9-11-7.3-18.8-7.3c-3.2,0-7.8,0.5-13.9,1.6v50.3h2.9h2c11.3,0,19.9-2.5,25.9-7.4
					C458.7,999.1,461.6,992.8,461.6,985z"/>
				<path class="st0" d="M622.9,1073.5h-32.3l-40.9-56.5h-7.5h-2.4h-2.7v56.5h-34.5v-3.3h4.6c5.1,0,8.8-1.6,10.9-4.9
					c1.2-1.8,1.8-6.2,1.8-13.1V974c0-7.5-0.8-12.3-2.4-14.2c-2.4-2.6-5.9-3.8-10.4-3.8h-4.6v-3.3h44c13.1,0,22.6,1,28.5,2.9
					c6,1.5,11.1,4.8,15.4,9.9c4.3,5.2,6.5,11.2,6.5,18.1c0,7.5-2.4,14-7.1,19.2c-4.7,5.3-12.3,9.2-22.6,11.8l24.8,34.7
					c1.2,1.6,2.2,2.9,3.1,4c1.9,2.4,3.6,4.4,4.9,5.8c2.4,2.7,4.7,4.7,6.7,6c4,2.6,9.4,4.2,16,4.9v3.5H622.9z M576.9,985
					c0-7.3-2.4-13.4-7.1-18.2c-4.7-4.9-11-7.3-18.8-7.3c-3.2,0-7.8,0.5-13.9,1.6v50.3h2.9h2c11.3,0,19.9-2.5,25.9-7.4
					C573.9,999.1,576.9,992.8,576.9,985z"/>
				<path class="st0" d="M722.1,1043.2l-10.4,30.3h-75.9v-99.8c0-7.7-0.7-12.4-2.2-14.2c-2.3-2.3-5.9-3.5-10.8-3.5h-4.2v-3.3h93
					l1.3,26.4h-3.5c-1.3-6.8-2.7-11.2-4.2-13.1c-1.3-2.2-3.6-4-6.7-5.5c-2.3-0.8-6.4-1.3-12.4-1.3H653v47.8h48.9v24.4h-3.5
					c-0.7-6.2-1.6-10.1-2.6-11.7c-0.9-1.8-2.6-3.3-5.4-4.6c-2.7-1.2-6.4-1.8-11-1.8H653v39.9c0,5.5,0.2,8.7,0.5,9.7
					c0.4,1,1.2,1.9,2.4,2.6c1.2,0.8,3.6,1.2,7.1,1.2h20.4c6.7,0,11.6-0.5,14.7-1.4c3.1-0.9,6.1-2.8,9-5.7c1.3-1.3,2.3-2.4,2.9-3.1
					c0.6-0.7,1.5-2,2.7-3.8l5.7-9.7h3.7V1043.2z"/>
			</g>
			<g>
				<path class="st0" d="M897,1011.8c8.5,1.8,14.8,4.7,18.8,8.6c5.7,5.5,8.6,12.2,8.6,20.1c0,5.8-1.9,11.5-5.6,17.1
					c-3.7,5.5-9,9.6-15.8,12.1c-3,1.2-7.4,2.2-13,2.8c-5.6,0.7-11.4,1-17.3,1c-7.1,0-16-1.3-26.8-4c-4.1-0.8-9.1-2.2-14.8-4
					c1.3-2.3,2-6.7,2-13.3V974c0-7.8-0.9-12.5-2.6-14.2c-2.4-2.6-5.8-3.8-10.2-3.8h-4.6v-3.3H868c9.4,0,17.8,0.8,25.4,2.5
					c7.5,1.6,13.7,5.3,18.4,10.9c4.7,5.7,7.1,11.9,7.1,18.9c0,6.2-1.9,11.6-5.7,16.2C909.8,1005.7,904.4,1009.2,897,1011.8z
					 M850.3,1007.4l7.5,0.9h9.3c8.6,0,15.1-0.9,19.5-2.7s7.7-4.7,10-8.7c2.3-3.9,3.5-8.2,3.5-12.7c0-7.2-2.8-13.2-8.4-18.2
					c-5.6-4.9-14-7.4-25.4-7.4c-6.3,0-11.7,0.6-16.1,1.8v47H850.3z M850.3,1064l11.1,2.4l9.3,0.7c10.6,0,18.8-2.4,24.6-7.1
					c5.6-5,8.4-11,8.4-18.1c0-4.5-1.3-8.9-3.8-13.3c-2.6-4.4-6.7-7.8-12.5-10.4c-5.8-2.6-12.9-3.8-21.4-3.8h-9.3l-6.4,0.7
					L850.3,1064L850.3,1064z"/>
				<path class="st0" d="M1039.1,1040.6l-10.2,32.8h-93.6v-3.3h4.6c5.1,0,8.8-1.6,10.9-4.9c1.2-2.1,1.8-6.5,1.8-13.3V974
					c0-7.5-0.8-12.3-2.4-14.2c-2.4-2.6-5.9-3.8-10.4-3.8h-4.6v-3.3h34.5v99.2c0,5.1,0.4,8.4,1.2,9.8s2,2.4,3.6,3.1s6.2,1,13.9,1h8.8
					c9.7,0,16.4-0.7,19.9-2.1s6.8-3.8,9.9-7.3s6.2-8.9,9.2-16.3L1039.1,1040.6z"/>
				<path class="st0" d="M1170,1073.5h-29.4l-16.8-40.3h-46.9l-8.1,19c-2,5.1-3,8.6-3,10.4s0.8,3.5,2.4,4.9c1.7,1.1,5.5,2,11.5,2.7
					v3.3h-37.9v-3.3c5-1,8.3-2.1,9.8-3.5c2.9-2.9,6.3-8.7,10-17.3l42.5-99.4h3.1l42,100.5c3.6,8,6.7,13.3,9.1,15.7
					c1.2,1.1,2.9,2.1,5.1,3.1c2.1,0.6,4.3,0.9,6.6,0.9L1170,1073.5L1170,1073.5z M1121.3,1026.6l-20.4-48.9l-21.3,48.9H1121.3z"/>
				<path class="st0" d="M1298.4,956h-4.2c-5.1,0-8.8,1.5-10.9,4.6c-1.3,2.1-2,6.4-2,13.1v101.8h-3.1l-79.7-97.2v95.2h-25v-3.3h4.2
					c5.3,0,9-1.5,10.9-4.6c1.3-2.1,2-6.4,2-13.1v-99.8h9.1l73.7,90.5v-90.5h25V956z"/>
				<path class="st0" d="M1427.6,1046.3c-6.2,6.6-11.1,11.3-14.8,14.2c-6.2,5.1-13,9.1-20.4,12c-2.4,1-4.9,1.8-7.3,2.6
					c-1.2,0.4-3.3,0.9-6.3,1.6s-7.1,1.1-12.5,1.1c-10.2,0-19.5-2-27.8-6.1s-15.4-10-21.2-17.8c-8.3-11.1-12.4-24.1-12.4-39
					c0-11.9,2.7-23,8.1-33.3s12.8-18.1,22.2-23.5c9.4-5.4,19.8-8.1,31.2-8.1c8.9,0,17.5,2.1,25.9,6.4c1.7,1,3.5,1.6,5.3,2
					c1.5,0,2.9-0.6,4.2-1.8l1.6-2.2l1.6-4.4h3.1l2.7,41h-2.7c-3.5-12-8.7-20.8-15.6-26.4c-6.9-5.5-15.1-8.3-24.7-8.3
					c-8.1,0-15.4,2-21.6,6c-6.3,4-11.4,10.5-15.4,19.5c-0.9,2.1-1.6,4.2-2.3,6.5c-0.7,2.3-1.3,4.9-1.8,8s-0.9,6.1-1.2,8.8
					c-0.2,2.8-0.4,6.1-0.4,9.9c0,11.1,1.7,20.6,5.2,28.5s8.8,14,16,18.4c3.4,1.9,7.7,3.9,13,5.8c4.7,1.5,9.4,2.2,13.9,2.2h4
					c0.8,0,1.8,0,2.7,0c1.1,0,1.8,0,2.2,0l9.1-2.4c5.1-1.5,10-3.7,14.6-6.7c2.2-1.4,4.9-3.4,8-6.1c3.2-2.7,6.9-6.2,11.1-10.4
					L1427.6,1046.3z"/>
				<path class="st0" d="M1546.9,1073.5h-29.4l-16.8-40.3h-46.9l-8.1,19c-2,5.1-3,8.6-3,10.4s0.8,3.5,2.4,4.9
					c1.7,1.1,5.5,2,11.5,2.7v3.3h-37.9v-3.3c5-1,8.3-2.1,9.8-3.5c2.9-2.9,6.3-8.7,10-17.3L1481,950h3.1l42,100.5
					c3.6,8,6.7,13.3,9.1,15.7c1.2,1.1,2.9,2.1,5.1,3.1c2.1,0.6,4.3,0.9,6.6,0.9L1546.9,1073.5L1546.9,1073.5z M1498.1,1026.6
					l-20.4-48.9l-21.3,48.9H1498.1z"/>
			</g>
		</g>
	</g>
	<g>
		<line class="st1" x1="26.4" y1="1119" x2="89.6" y2="1119"/>
		<rect x="26.4" y="1113.6" width="63.2" height="10.8"/>
	</g>
	<g>
		<line class="st1" x1="1611.2" y1="1119" x2="1674.4" y2="1119"/>
		<rect x="1611.2" y="1113.6" width="63.2" height="10.8"/>
	</g>
	<g>
		<rect x="90" y="1113.6" class="st2" width="1521.2" height="10.8"/>
	</g>
	<g>
		<path d="M415.8,1182h8.7v64.5h-8.7V1182z"/>
		<path d="M460,1179.5l47.7,49V1182h8.8v67.5l-47.7-48.8v45.8H460V1179.5z"/>
		<path d="M604.6,1179.4l17.6,67.2h-8.6l-10.7-41l-18.4,43.5l-18.4-43.9l-10.8,41.4h-8.6l17.6-67.2l20.2,48.1L604.6,1179.4z"/>
		<path d="M650.4,1213.9c0-9.3,3.5-17.3,10.5-23.9s15.5-10,25.3-10c9.6,0,17.9,3.3,24.9,10s10.4,14.6,10.4,23.8
			c0,9.7-3.4,18-10.3,24.7c-6.9,6.7-15.3,10.1-25.3,10.1c-9.9,0-18.2-3.4-25.2-10.2C653.8,1231.8,650.4,1223.6,650.4,1213.9z
			 M712.1,1214.3c0-7.1-2.6-13.1-7.7-18c-5.1-4.9-11.4-7.3-18.9-7.3c-7.1,0-13.2,2.5-18.3,7.4c-5.1,5-7.6,10.9-7.6,17.8
			c0,7,2.6,13,7.8,17.9s11.6,7.3,19.2,7.3c7,0,12.9-2.5,18-7.5C709.6,1227.1,712.1,1221.2,712.1,1214.3z"/>
		<path d="M756,1182h10.2c6.7,0,12.2,1.5,16.4,4.4c4.3,2.9,6.4,6.6,6.4,11c0,5.4-3.1,10-9.4,13.6c9.7,3.2,14.6,8.9,14.6,16.9
			c0,5.6-2.5,10.1-7.5,13.5s-11.7,5.1-20.1,5.1H756V1182z M764.7,1189.8v19.1c4.9-0.1,8.6-1,11.2-2.8c2.6-1.8,3.9-4.3,3.9-7.4
			c0-2.7-1.2-4.9-3.5-6.6c-2.3-1.6-5.4-2.5-9.4-2.5C766.1,1189.7,765.3,1189.8,764.7,1189.8z M764.7,1216.6v22.1h0.7
			c7.6,0,12.8-1.2,15.5-3.6c2.8-2.4,4.2-4.9,4.2-7.4c0-3.3-1.6-6-4.7-8c-3.1-2-7.4-3-12.8-3L764.7,1216.6L764.7,1216.6z"/>
		<path d="M828.2,1182h8.7v64.5h-8.7V1182z"/>
		<path d="M874.1,1182h8.7v55.8h21v8.7h-29.7V1182z"/>
		<path d="M934.3,1182h8.7v64.5h-8.7V1182z"/>
		<path d="M1003.1,1179.6l30.4,67h-9.2l-7.5-16.5h-27.4l-7.4,16.5h-9.2L1003.1,1179.6z M1003,1199.7l-10.3,23h20.7L1003,1199.7z"/>
		<path d="M1064.7,1182h14c6.9,0,12.6,1.7,17,5.2s6.6,7.9,6.6,13.3c0,4.3-1.4,8.1-4.2,11.4c-2.8,3.3-7.2,5.6-13.2,7l18.7,27.6h-10.1
			l-17.9-26.5h-2v26.5h-8.8L1064.7,1182L1064.7,1182z M1073.5,1189.8v22.5c13,0.3,19.5-3.5,19.5-11.3c0-2.7-0.8-5-2.3-6.7
			s-3.5-2.9-6.1-3.5C1082.1,1190.2,1078.4,1189.8,1073.5,1189.8z"/>
		<path d="M1136.8,1182h8.7v64.5h-8.7V1182z"/>
		<path d="M1205.5,1179.6l30.4,67h-9.2l-7.5-16.5h-27.4l-7.4,16.5h-9.2L1205.5,1179.6z M1205.5,1199.7l-10.3,23h20.7L1205.5,1199.7z
			"/>
	</g>
	<path d="M819.4,271.4c99.1,0,116.6,32.7,116.6,32.7l35.5-130.7h-46.7c0,0,1.6,5.5,2.3,28.6s-1.5,53.5-46.2,50.5
		c-44.7-2.9-32.8-79.2-32.8-79.2h-28.6h-28.6c0,0,11.9,76.2-32.8,79.2s-47-27.4-46.2-50.5s2.3-28.6,2.3-28.6h-46.7L703,304.1
		C702.8,304.2,720.3,271.4,819.4,271.4z"/>
	<path d="M819.4,334.7c44.3,0,104.2-10,104.2-10c-11.1-16.9-53.8-30.2-104.2-30.2c-50.5,0-93.1,13.3-104.2,30.2
		C715.1,324.7,775.1,334.7,819.4,334.7z"/>
	<path d="M861.7,487.3c5.9-83.6,55.9-140,55.9-140l-38.7,5.4c0,0-11,31.3-18.6,53.3h-40.9h-2.2h-38.7c-7.5-22-18.6-53.3-18.6-53.3
		l-38.7-5.4c0,0,50,56.4,55.9,140s4.9,147.5-23.6,282.2c-16,70.3-30.7,104-30.7,104h36.4h58h2.2h60.2H916c0,0-14.8-33.7-30.7-104
		C856.7,634.8,855.8,570.9,861.7,487.3z M819.4,868.8h-2.2h-57.1c4.2-20.3,20.7-101.3,25.8-139c5.9-43.3,16.4-91.8,16.4-177.3
		c0-85.6-13.1-114.4-19.7-134.1c-0.5-1.5-1-3.1-1.6-4.8h36.1h2.2h38.3c-0.6,1.7-1.1,3.3-1.6,4.8c-6.6,19.7-19.7,48.5-19.7,134.1
		s10.5,134.1,16.4,177.3c5.1,37.7,21.7,118.7,25.8,139H819.4z"/>
</g>
</svg>
