<svg width="100" height="59" viewBox="0 0 100 59" fill="none" xmlns="http://www.w3.org/2000/svg">
<g clip-path="url(#clip0_1_40)">
<path d="M26.2108 45.9969H28.775V36.0767H32.3718V33.5788H22.5784V36.0767H26.2108V45.9969Z" fill="#2C261F"/>
<path d="M39.6724 46.1753C43.3049 46.1753 46.0826 43.392 46.0826 39.7879C46.0826 36.1838 43.2692 33.4004 39.6724 33.4004C36.0755 33.4004 33.2977 36.1838 33.2977 39.7879C33.2977 43.392 36.0755 46.1753 39.6724 46.1753ZM39.6724 35.934C41.8447 35.934 43.4473 37.5754 43.4473 39.7879C43.4473 42.0003 41.8447 43.6418 39.6724 43.6418C37.5356 43.6418 35.9331 42.0003 35.9331 39.7879C35.8974 37.5754 37.5 35.934 39.6724 35.934Z" fill="#2C261F"/>
<path d="M50.2849 43.0351H52.2792C55.4131 43.0351 57.443 41.1439 57.443 38.2891C57.443 35.4344 55.3775 33.5788 52.2792 33.5788H47.7208V45.9969H50.2849V43.0351ZM50.2849 36.041H52.4217C53.8106 36.041 54.7721 36.9688 54.7721 38.2891C54.7721 39.6095 53.8106 40.5372 52.4217 40.5372H50.2849V36.041Z" fill="#2C261F"/>
<path d="M71.7236 43.5347H66.3461V33.5788H63.782V45.9969H71.7236V43.5347Z" fill="#2C261F"/>
<path d="M78.3832 33.5788H75.8191V45.9969H78.3832V33.5788Z" fill="#2C261F"/>
<path d="M83.4046 41.358H87.8205V38.8601H83.4046V36.0767H88.7821V33.5788H80.8405V45.9969H83.4046V41.358Z" fill="#2C261F"/>
<path d="M100 43.5347H94.4445V40.8584H99.359V38.5389H94.4445V36.041H100V33.5788H91.8804V45.9969H100V43.5347Z" fill="#2C261F"/>
<path d="M41.8447 54.8466V57.4872C41.8447 57.7727 41.7379 58.0225 41.5598 58.2009C41.3817 58.3793 41.1325 58.4507 40.8476 58.4507C40.5627 58.4507 40.3134 58.3793 40.1353 58.1652C39.9572 57.9868 39.8504 57.737 39.8504 57.4158H40.3134C40.3134 57.5943 40.349 57.737 40.4558 57.8441C40.527 57.9511 40.6695 58.0225 40.8476 58.0225C41.0256 58.0225 41.1681 57.9868 41.2393 57.8797C41.3105 57.7727 41.3817 57.63 41.3817 57.4872V54.8466H41.8447Z" fill="#2C261F"/>
<path d="M44.8006 54.8466V57.0947C44.8006 57.4159 44.8718 57.63 45.0499 57.8084C45.1923 57.9511 45.406 58.0225 45.6909 58.0225C45.9758 58.0225 46.1895 57.9511 46.3319 57.8084C46.4744 57.6656 46.5812 57.4159 46.5812 57.0947V54.8466H47.0442V57.0947C47.0442 57.3802 46.9729 57.63 46.8661 57.8441C46.7593 58.0582 46.5812 58.2009 46.3675 58.308C46.1539 58.415 45.9402 58.4507 45.6909 58.4507C45.4416 58.4507 45.2279 58.415 45.0143 58.308C44.8006 58.2009 44.6581 58.0582 44.5513 57.8441C44.4445 57.63 44.3732 57.3802 44.3732 57.0947V54.8466H44.8006Z" fill="#2C261F"/>
<path d="M51.4958 57.63H49.9288L49.6439 58.415H49.1453L50.4274 54.8823H50.9616L52.2436 58.415H51.745L51.4958 57.63ZM51.3533 57.2374L50.7123 55.4532L50.0713 57.2374H51.3533Z" fill="#2C261F"/>
<path d="M57.1937 58.415H56.7308L54.8789 55.596V58.415H54.416V54.8466H54.8789L56.7308 57.7013V54.8466H57.1937V58.415Z" fill="#2C261F"/>
<path d="M64.6368 55.0607C64.9217 55.2034 65.1354 55.4175 65.2778 55.6673C65.4203 55.9528 65.4915 56.2383 65.4915 56.6308C65.4915 56.9876 65.4203 57.3088 65.2778 57.5943C65.1354 57.8797 64.9217 58.0582 64.6368 58.2009C64.3519 58.3436 64.0314 58.415 63.6396 58.415H62.5356V54.8466H63.6396C64.0314 54.8466 64.3519 54.918 64.6368 55.0607ZM64.6724 57.6656C64.9217 57.4159 65.0285 57.0947 65.0285 56.6308C65.0285 56.2026 64.9217 55.8457 64.6724 55.596C64.4231 55.3462 64.067 55.2391 63.6396 55.2391H62.9986V58.0582H63.6396C64.1026 58.0225 64.4587 57.9154 64.6724 57.6656Z" fill="#2C261F"/>
<path d="M68.198 55.2391V56.4167H69.4801V56.8092H68.198V58.0225H69.6225V58.415H67.735V54.8466H69.6225V55.2391H68.198Z" fill="#2C261F"/>
<path d="M76.9587 57.63H75.3918L75.1068 58.415H74.6083L75.8903 54.8823H76.4245L77.7066 58.415H77.208L76.9587 57.63ZM76.8519 57.2374L76.2108 55.4532L75.5698 57.2374H76.8519Z" fill="#2C261F"/>
<path d="M80.3419 58.0582H81.5883V58.415H79.8789V54.8466H80.3419V58.0582Z" fill="#2C261F"/>
<path d="M84.1524 54.8466H83.6895V58.415H84.1524V54.8466Z" fill="#2C261F"/>
<path d="M88.6396 57.63H87.0727L86.7878 58.415H86.2892L87.5712 54.8823H88.1054L89.3875 58.415H88.8889L88.6396 57.63ZM88.4972 57.2374L87.8561 55.4532L87.2151 57.2374H88.4972Z" fill="#2C261F"/>
<path d="M94.2308 55.8814C94.1239 55.6673 93.9815 55.5246 93.8034 55.3819C93.6254 55.2391 93.4117 55.2034 93.1624 55.2034C92.9131 55.2034 92.6994 55.2748 92.4858 55.3819C92.2721 55.4889 92.1296 55.6673 92.0228 55.8814C91.916 56.0955 91.8447 56.3453 91.8447 56.6308C91.8447 56.9163 91.916 57.1661 92.0228 57.3802C92.1296 57.5943 92.3077 57.737 92.4858 57.8798C92.6994 57.9868 92.9131 58.0582 93.1624 58.0582C93.5185 58.0582 93.8034 57.9511 94.0171 57.737C94.2308 57.5229 94.3732 57.2374 94.4088 56.8806H92.9843V56.4881H94.9074V56.8449C94.8718 57.1304 94.8006 57.4159 94.6225 57.6656C94.4801 57.9154 94.2664 58.0939 94.0171 58.2366C93.7678 58.3793 93.4829 58.4507 93.1624 58.4507C92.8419 58.4507 92.5214 58.3793 92.2721 58.2009C91.9872 58.0582 91.7735 57.8441 91.6311 57.5586C91.4886 57.2731 91.3818 56.9876 91.3818 56.6308C91.3818 56.274 91.453 55.9528 91.6311 55.703C91.7735 55.4175 91.9872 55.2034 92.2721 55.0607C92.557 54.918 92.8419 54.8109 93.1624 54.8109C93.5541 54.8109 93.8746 54.918 94.1595 55.0964C94.4444 55.2748 94.6581 55.5603 94.8006 55.8814H94.2308Z" fill="#2C261F"/>
<path d="M99.2165 57.63H97.6496L97.3647 58.415H96.8661L98.1481 54.8823H98.6823L99.9644 58.415H99.4658L99.2165 57.63ZM99.0741 57.2374L98.433 55.4532L97.792 57.2374H99.0741Z" fill="#2C261F"/>
<path d="M18.6254 50.85V41.7862V31.7589V31.2237V0H17.2365V9.67042H14.067V0H12.6781V9.67042H7.72792V0H6.33903V9.67042H2.5641V0H1.17521V9.67042H0V11.0621H4.05983V20.0188H0V21.4105H1.95869V30.3672H0V31.7589V31.866H3.9886V40.8584H0V42.2501H1.10399V50.6715H0V52.0632V52.2416H100V50.85H18.6254ZM17.2365 30.3672H12.3219V21.4105H17.2365V30.3672ZM10.2208 31.9017H12.6425V40.8941H10.2208V31.9017ZM10.8974 30.3672H8.86752V21.4105H10.8974V30.3672ZM7.40741 30.3672H3.4188V21.4105H7.40741V30.3672ZM5.44872 31.9017H8.7963V40.8941H5.44872V31.9017ZM7.72792 42.2858H12.6425V50.6715H7.72792V42.2858ZM14.067 42.2858H17.2009V50.6715H14.067V42.2858ZM17.2365 40.8941H14.067V31.9017H17.2365V40.8941ZM17.2365 20.0188H14.067V11.0621H17.2365V20.0188ZM5.44872 11.0621H12.6425V20.0188H5.44872V11.0621ZM6.26781 50.6715H2.5641V42.2858H6.26781V50.6715Z" fill="#42AFCC"/>
</g>
<defs>
<clipPath id="clip0_1_40">
<rect width="100" height="58.4507" fill="white"/>
</clipPath>
</defs>
</svg>
