<svg width="142" height="83" viewBox="0 0 142 83" fill="none" xmlns="http://www.w3.org/2000/svg">
<g clip-path="url(#clip0_1_13)">
<path d="M37.2194 65.3158H40.8604V51.2291H45.968V47.6821H32.0613V51.2291H37.2194V65.3158Z" fill="white"/>
<path d="M56.3348 65.5691C61.4929 65.5691 65.4373 61.6167 65.4373 56.4989C65.4373 51.3811 61.4423 47.4287 56.3348 47.4287C51.2272 47.4287 47.2828 51.3811 47.2828 56.4989C47.2828 61.6167 51.2272 65.5691 56.3348 65.5691ZM56.3348 51.0264C59.4195 51.0264 61.6952 53.3573 61.6952 56.4989C61.6952 59.6406 59.4195 61.9714 56.3348 61.9714C53.3006 61.9714 51.0249 59.6406 51.0249 56.4989C50.9744 53.3573 53.25 51.0264 56.3348 51.0264Z" fill="white"/>
<path d="M71.4046 61.1101H74.2365C78.6866 61.1101 81.5691 58.4245 81.5691 54.3708C81.5691 50.3171 78.6361 47.6821 74.2365 47.6821H67.7635V65.3158H71.4046V61.1101ZM71.4046 51.1785H74.4388C76.411 51.1785 77.7764 52.4959 77.7764 54.3708C77.7764 56.2456 76.411 57.5631 74.4388 57.5631H71.4046V51.1785Z" fill="white"/>
<path d="M101.848 61.8195H94.2115V47.6821H90.5705V65.3158H101.848V61.8195Z" fill="white"/>
<path d="M111.304 47.6821H107.663V65.3158H111.304V47.6821Z" fill="white"/>
<path d="M118.434 58.7285H124.705V55.1815H118.434V51.2291H126.071V47.6821H114.793V65.3158H118.434V58.7285Z" fill="white"/>
<path d="M142 61.8195H134.111V58.0191H141.09V54.7255H134.111V51.1785H142V47.6821H130.47V65.3158H142V61.8195Z" fill="white"/>
<path d="M59.4195 77.8823V81.632C59.4195 82.0374 59.2678 82.3921 59.0149 82.6455C58.7621 82.8988 58.4081 83.0002 58.0035 83.0002C57.599 83.0002 57.245 82.8988 56.9921 82.5948C56.7393 82.3414 56.5876 81.9867 56.5876 81.5307H57.245C57.245 81.784 57.2956 81.9867 57.4473 82.1387C57.5484 82.2908 57.7507 82.3921 58.0035 82.3921C58.2564 82.3921 58.4587 82.3414 58.5598 82.1894C58.6609 82.0374 58.7621 81.8347 58.7621 81.632V77.8823H59.4195Z" fill="white"/>
<path d="M63.6168 77.8823V81.0746C63.6168 81.5307 63.7179 81.8347 63.9708 82.0881C64.1731 82.2908 64.4765 82.3921 64.881 82.3921C65.2856 82.3921 65.589 82.2908 65.7913 82.0881C65.9936 81.8854 66.1453 81.5307 66.1453 81.0746V77.8823H66.8027V81.0746C66.8027 81.48 66.7015 81.8347 66.5498 82.1387C66.3981 82.4428 66.1453 82.6454 65.8419 82.7975C65.5384 82.9495 65.235 83.0002 64.881 83.0002C64.527 83.0002 64.2236 82.9495 63.9202 82.7975C63.6168 82.6454 63.4145 82.4428 63.2628 82.1387C63.1111 81.8347 63.0099 81.48 63.0099 81.0746V77.8823H63.6168Z" fill="white"/>
<path d="M73.1239 81.8343H70.8989L70.4943 82.9491H69.7863L71.6068 77.9326H72.3654L74.1859 82.9491H73.4779L73.1239 81.8343ZM72.9216 81.2769L72.0114 78.7434L71.1011 81.2769H72.9216Z" fill="white"/>
<path d="M81.2151 82.9495H80.5577L77.928 78.9464V82.9495H77.2706V77.8823H77.928L80.5577 81.936V77.8823H81.2151V82.9495Z" fill="white"/>
<path d="M91.7842 78.1864C92.1888 78.389 92.4922 78.6931 92.6945 79.0478C92.8968 79.4531 92.9979 79.8585 92.9979 80.4159C92.9979 80.9226 92.8968 81.3787 92.6945 81.784C92.4922 82.1894 92.1888 82.4428 91.7842 82.6455C91.3797 82.8481 90.9245 82.9495 90.3683 82.9495H88.8006V77.8823H90.3683C90.9245 77.8823 91.3797 77.9837 91.7842 78.1864ZM91.8348 81.8854C92.1888 81.5307 92.3405 81.0746 92.3405 80.4159C92.3405 79.8078 92.1888 79.3011 91.8348 78.9464C91.4808 78.5917 90.9751 78.4397 90.3683 78.4397H89.458V82.4428H90.3683C91.0257 82.3921 91.5314 82.2401 91.8348 81.8854Z" fill="white"/>
<path d="M96.8412 78.4397V80.1119H98.6617V80.6693H96.8412V82.3921H98.864V82.9495H96.1838V77.8823H98.864V78.4397H96.8412Z" fill="white"/>
<path d="M109.281 81.8343H107.056L106.652 82.9491H105.944L107.764 77.9326H108.523L110.343 82.9491H109.635L109.281 81.8343ZM109.13 81.2769L108.219 78.7434L107.309 81.2769H109.13Z" fill="white"/>
<path d="M114.086 82.4428H115.855V82.9495H113.428V77.8823H114.086V82.4428Z" fill="white"/>
<path d="M119.496 77.8823H118.839V82.9495H119.496V77.8823Z" fill="white"/>
<path d="M125.868 81.8343H123.643L123.239 82.9491H122.531L124.351 77.9326H125.11L126.93 82.9491H126.222L125.868 81.8343ZM125.666 81.2769L124.756 78.7434L123.845 81.2769H125.666Z" fill="white"/>
<path d="M133.808 79.3517C133.656 79.0477 133.454 78.845 133.201 78.6423C132.948 78.4396 132.645 78.3889 132.291 78.3889C131.937 78.3889 131.633 78.4903 131.33 78.6423C131.026 78.7943 130.824 79.0477 130.672 79.3517C130.521 79.6557 130.419 80.0104 130.419 80.4158C130.419 80.8212 130.521 81.1759 130.672 81.4799C130.824 81.7839 131.077 81.9866 131.33 82.1893C131.633 82.3413 131.937 82.4426 132.291 82.4426C132.796 82.4426 133.201 82.2906 133.504 81.9866C133.808 81.6826 134.01 81.2772 134.061 80.7705H132.038V80.2131H134.768V80.7198C134.718 81.1252 134.617 81.5306 134.364 81.8853C134.162 82.24 133.858 82.4933 133.504 82.696C133.15 82.8987 132.746 83 132.291 83C131.835 83 131.38 82.8987 131.026 82.6453C130.622 82.4427 130.318 82.1386 130.116 81.7333C129.914 81.3279 129.762 80.9225 129.762 80.4158C129.762 79.9091 129.863 79.453 130.116 79.0983C130.318 78.693 130.622 78.3889 131.026 78.1862C131.431 77.9836 131.835 77.8315 132.291 77.8315C132.847 77.8315 133.302 77.9836 133.707 78.2369C134.111 78.4903 134.415 78.8956 134.617 79.3517H133.808Z" fill="white"/>
<path d="M140.887 81.8343H138.662L138.258 82.9491H137.55L139.37 77.9326H140.129L141.949 82.9491H141.241L140.887 81.8343ZM140.685 81.2769L139.775 78.7434L138.865 81.2769H140.685Z" fill="white"/>
<path d="M26.448 72.207V59.3364V45.0977V44.3376V0H24.4758V13.732H19.9751V0H18.0028V13.732H10.9736V0H9.00142V13.732H3.64103V0H1.6688V13.732H0V15.7082H5.76496V28.4267H0V30.4029H2.78134V43.1215H0V45.0977V45.2497H5.66382V58.0189H0V59.9951H1.56766V71.9536H0V73.9298V74.1831H142V72.207H26.448ZM24.4758 43.1215H17.4972V30.4029H24.4758V43.1215ZM14.5135 45.3004H17.9523V58.0696H14.5135V45.3004ZM15.4744 43.1215H12.5919V30.4029H15.4744V43.1215ZM10.5185 43.1215H4.8547V30.4029H10.5185V43.1215ZM7.73718 45.3004H12.4907V58.0696H7.73718V45.3004ZM10.9736 60.0458H17.9523V71.9536H10.9736V60.0458ZM19.9751 60.0458H24.4252V71.9536H19.9751V60.0458ZM24.4758 58.0696H19.9751V45.3004H24.4758V58.0696ZM24.4758 28.4267H19.9751V15.7082H24.4758V28.4267ZM7.73718 15.7082H17.9523V28.4267H7.73718V15.7082ZM8.90029 71.9536H3.64103V60.0458H8.90029V71.9536Z" fill="white"/>
</g>
<defs>
<clipPath id="clip0_1_13">
<rect width="142" height="83" fill="white"/>
</clipPath>
</defs>
</svg>
