<svg width="385" height="95" viewBox="0 0 385 95" fill="none" xmlns="http://www.w3.org/2000/svg">
<g clip-path="url(#clip0_5_215)">
<path fill-rule="evenodd" clip-rule="evenodd" d="M384.835 0.597542C384.909 0.658995 385.032 0.85709 385.053 0.996648C385.053 1.27656 384.793 1.50347 384.473 1.50347C384.392 1.50347 384.315 1.48897 384.245 1.46279C384.22 1.45986 384.185 1.45628 384.138 1.45231C383.969 1.43787 383.706 1.42311 383.345 1.40848C382.626 1.37934 381.555 1.35199 380.15 1.32646C377.342 1.27543 373.222 1.23194 367.974 1.19526C357.48 1.12189 342.487 1.07577 324.494 1.05061C288.508 1.00029 240.527 1.03384 192.545 1.10093C144.563 1.16802 96.5806 1.26865 60.594 1.35251C42.6007 1.39444 27.6063 1.43218 17.1102 1.45944C11.8621 1.47307 7.73869 1.48407 4.92725 1.49167L1.19503 1.50186V93.9563H216.65C216.971 93.9563 217.231 94.1832 217.231 94.4632C217.231 94.7431 216.971 94.97 216.65 94.97H0.0340576V0.491449L0.612684 0.489831L0.614543 0.996648C0.612684 0.489831 0.614149 0.489827 0.617073 0.489819L4.92366 0.478038C7.73514 0.470437 11.8586 0.45943 17.1067 0.445802C27.6029 0.418547 42.5974 0.380808 60.5909 0.338877C96.5777 0.255013 144.56 0.154377 192.543 0.0872866C240.525 0.020196 288.508 -0.0133503 324.496 0.0369688C342.49 0.0621281 357.486 0.108254 367.984 0.181648C373.232 0.218342 377.359 0.261866 380.174 0.31304C381.581 0.338612 382.665 0.366168 383.399 0.39593C383.764 0.410745 384.051 0.426434 384.251 0.443472C384.348 0.451733 384.441 0.461652 384.517 0.474921C384.55 0.480753 384.61 0.492175 384.673 0.514439C384.709 0.527832 384.789 0.56721 384.835 0.597542ZM384.293 1.4695C384.293 1.46956 384.292 1.46936 384.289 1.46884L384.293 1.4695Z" fill="#2C261F"/>
</g>
<defs>
<clipPath id="clip0_5_215">
<rect width="385" height="95" fill="white"/>
</clipPath>
</defs>
</svg>
