<svg width="300" height="82" viewBox="0 0 300 82" fill="none" xmlns="http://www.w3.org/2000/svg">
<g clip-path="url(#clip0_92_478)">
<path fill-rule="evenodd" clip-rule="evenodd" d="M299.872 0.515762C299.929 0.568805 300.025 0.739792 300.042 0.860254C300.042 1.10186 299.839 1.29772 299.589 1.29772C299.526 1.29772 299.466 1.28521 299.411 1.26261C299.392 1.26008 299.365 1.25699 299.328 1.25356C299.197 1.2411 298.991 1.22836 298.71 1.21573C298.15 1.19058 297.315 1.16697 296.221 1.14493C294.033 1.10088 290.822 1.06335 286.733 1.03168C278.556 0.968356 266.873 0.928545 252.853 0.906829C224.812 0.863398 187.423 0.892352 150.035 0.950261C112.646 1.00817 75.2576 1.09503 47.2161 1.16742C33.1953 1.20361 21.5114 1.23619 13.3326 1.25971C9.24324 1.27148 6.03016 1.28098 3.83943 1.28754L0.931204 1.29633V81.0991H168.818C169.068 81.0991 169.271 81.295 169.271 81.5366C169.271 81.7782 169.068 81.9741 168.818 81.9741H0.0265503V0.424187L0.477428 0.42279L0.478877 0.860254C0.477428 0.42279 0.47857 0.422787 0.480848 0.42278L3.83663 0.412611C6.02739 0.406051 9.24051 0.39655 13.3299 0.384787C21.5088 0.361261 33.1928 0.328687 47.2137 0.292493C75.2554 0.220106 112.644 0.133241 150.033 0.0753309C187.422 0.0174211 224.812 -0.0115347 252.854 0.0318987C266.875 0.0536151 278.56 0.0934295 286.741 0.15678C290.83 0.188452 294.046 0.22602 296.24 0.270191C297.336 0.292264 298.18 0.316049 298.752 0.341739C299.037 0.354527 299.261 0.368069 299.416 0.382775C299.492 0.389905 299.564 0.398467 299.624 0.40992C299.65 0.414955 299.696 0.424814 299.745 0.44403C299.773 0.455591 299.835 0.489581 299.872 0.515762ZM299.449 1.2684C299.449 1.26845 299.448 1.26828 299.446 1.26783L299.449 1.2684Z" fill="#D9D9D9"/>
</g>
<defs>
<clipPath id="clip0_92_478">
<rect width="300" height="82" fill="white"/>
</clipPath>
</defs>
</svg>
